DBRep_DrawableShape

CASCADE Topology V1, (c) Matra-Datavision
Locations 5
1
              1               0               0               0 
              0               1               0               0 
              0               0               1               0 
2  1 -1 0
1
              1               0               0               0 
              0               1               0               0 
              0               0               1               0 
2  3 1 1 -1 0
2  3 -1 0
Curve2ds 50
1 0 0 1 0 
1 0 0 1 0 
1 0 0 0 -1 
1 0 -50 1 0 
1 0 0 1 0 
1 8 0 0 -1 
1 0 0 0 1 
1 0 0 0 1 
1 8 0 0 1 
1 0 0 1 0 
1 0 90 1 0 
1 0 0 1 0 
1 90 0 0 1 
1 8 0 0 -1 
1 0 50 1 0 
1 8 0 0 1 
1 0 9 1 0 
2 25 25 1 0 -0 1 3.3000000000000007
8 0 6.2831853071795862
1 0 9 1 0 
1 0 9 1 0 
2 65 25 1 0 -0 1 3.2999999999999972
8 0 6.2831853071795862
1 0 9 1 0 
1 0 0 0 1 
1 0 90 1 0 
1 0 -50 1 0 
1 0 0 0 -1 
1 0 1 1 0 
1 0 1 1 0 
1 6.2831853071800001 -0 0 1 
1 0 -0 0 1 
1 6.2831853071800001 -0 0 1 
1 0 -0 0 1 
1 0 0 1 0 
1 0 0 1 0 
1 0 -50 1 0 
1 0 0 1 0 
1 8 0 0 -1 
1 8 0 0 1 
1 0 90 1 0 
1 0 0 1 0 
1 8 0 0 -1 
1 8 0 0 1 
1 0 17 1 0 
1 0 17 1 0 
1 0 90 1 0 
1 0 -50 1 0 
1 6.2831853071800001 -0 0 1 
1 0 -0 0 1 
1 6.2831853071800001 -0 0 1 
1 0 -0 0 1 
Curves 30
1 0 0 0 0 0 1 
1 0 0 0 -0 1 0 
1 0 50 0 0 0 1 
1 0 0 8 -0 1 0 
1 0 0 0 1 0 -0 
1 0 0 8 1 0 -0 
1 90 0 0 0 0 1 
1 90 0 8 -0 1 0 
1 0 50 8 1 0 -0 
2 25 25 8 0 0 1 1 0 -0 -0 1 0 3.2999999999999998
2 65 25 8 0 0 1 1 0 -0 -0 1 0 3.2999999999999998
1 0 50 0 1 0 -0 
1 90 50 0 0 0 1 
1 90 0 0 -0 1 0 
2 25 25 0 0 0 1 1 0 -0 -0 1 0 3.2999999999999998
2 65 25 0 0 0 1 1 0 -0 -0 1 0 3.2999999999999998
1 28.300000000000001 25 -1 0 0 1 
1 68.299999999999997 25 -1 0 0 1 
1 0 0 8 0 0 1 
1 0 50 8 0 0 1 
1 0 0 16 -0 1 0 
1 0 0 16 1 0 -0 
1 90 0 8 0 0 1 
1 90 0 16 -0 1 0 
1 0 50 16 1 0 -0 
2 25 25 16 0 0 1 1 0 -0 -0 1 0 3.2999999999999998
2 65 25 16 0 0 1 1 0 -0 -0 1 0 3.2999999999999998
1 90 50 8 0 0 1 
1 28.300000000000001 25 -1 0 0 1 
1 68.299999999999997 25 -1 0 0 1 
Polygon3D 0
PolygonOnTriangulations 0
Surfaces 15
1 0 0 0 1 0 -0 0 0 1 0 -1 0 
1 0 0 0 -0 1 0 0 0 1 1 0 -0 
1 0 0 0 0 0 1 1 0 -0 -0 1 0 
1 0 50 0 -0 1 0 0 0 1 1 0 -0 
1 0 0 8 0 0 1 1 0 -0 -0 1 0 
1 90 0 0 1 0 -0 0 0 1 0 -1 0 
2 25 25 -1 0 0 1 1 0 -0 -0 1 0 3.2999999999999998
2 25 25 -1 0 0 1 1 0 -0 -0 1 0 3.2999999999999998
2 65 25 -1 0 0 1 1 0 -0 -0 1 0 3.2999999999999998
2 65 25 -1 0 0 1 1 0 -0 -0 1 0 3.2999999999999998
1 0 0 8 1 0 -0 0 0 1 0 -1 0 
1 0 0 8 -0 1 0 0 0 1 1 0 -0 
1 0 50 8 -0 1 0 0 0 1 1 0 -0 
1 0 0 16 0 0 1 1 0 -0 -0 1 0 
1 90 0 8 1 0 -0 0 0 1 0 -1 0 
Triangulations 0

TShapes 89
Ve
1e-07
0 0 0
0 0

0101101
*
Ve
1e-07
0 0 8
0 0

0101101
*
Ed
 1e-07 1 1 0
1  1 0 0 8
4 C0 1 0 2 0
2  1 1 0 0 8
2  2 2 0 0 8
0

0101000
+89 0 -88 2 *
Ve
1e-07
0 50 0
0 0

0101101
*
Ed
 1e-07 1 1 0
1  2 0 0 50
4 C0 1 0 3 0
2  3 1 0 0 50
0

0101000
+89 0 -86 0 *
Ve
1e-07
0 50 8
0 0

0101101
*
Ed
 1e-07 1 1 0
1  3 0 0 8
4 C0 1 0 4 0
2  4 1 0 0 8
2  5 4 0 0 8
0

0101000
+86 0 -84 2 *
Ed
 1e-07 1 1 0
1  4 0 0 50
4 C0 1 0 5 0
2  6 1 0 0 50
2  7 5 0 0 50
0

0101000
+88 2 -84 2 *
Wi

0101100
-87 1 +85 1 +83 1 -82 1 *
Fa
0  1e-07 1 1

0101000
+81 0 *
Ve
1e-07
90 0 0
0 0

0101101
*
Ed
 1e-07 1 1 0
1  5 0 0 90
4 C0 2 0 3 0
2  8 2 0 0 90
0

0101000
+89 0 -79 0 *
Ve
1e-07
90 0 8
0 0

0101101
*
Ed
 1e-07 1 1 0
1  6 0 0 90
4 C0 2 0 5 0
2  9 2 0 0 90
2  10 5 0 0 90
0

0101000
+88 2 -77 2 *
Ed
 1e-07 1 1 0
1  7 0 0 8
4 C0 2 0 6 0
2  11 2 0 0 8
2  12 6 0 0 8
0

0101000
+79 0 -77 2 *
Wi

0101100
-78 1 +87 1 +76 1 -75 1 *
Fa
0  1e-07 2 1

0101000
+74 0 *
Ve
1e-07
90 50 8
0 0

0101101
*
Ed
 1e-07 1 1 0
1  8 0 0 50
4 C0 5 0 6 0
2  13 5 0 0 50
2  14 6 0 0 50
0

0101000
+77 2 -72 2 *
Ed
 1e-07 1 1 0
1  9 0 0 90
4 C0 5 0 4 0
2  15 5 0 0 90
2  16 4 0 0 90
0

0101000
+84 2 -72 2 *
Wi

0101100
-82 1 +76 1 +71 1 -70 1 *
Ve
1.00000003552714e-07
28.3 25 8
0 0

0101101
*
Ed
 1.00000003552714e-07 1 1 0
1  10 0 0 6.28318530717959
2  17 7 0 0 6.28318530717959
4 C0 5 0 7 0
2  18 5 0 0 6.28318530717959
2  19 8 4 0 6.28318530717959
0

0101000
+68 2 -68 2 *
Wi

0101100
-67 1 *
Ve
1.00000003552714e-07
68.3 25 8
0 0

0101101
*
Ed
 1.00000003552714e-07 1 1 0
1  11 0 0 6.28318530717959
2  20 9 0 0 6.28318530717959
4 C0 5 0 9 0
2  21 5 0 0 6.28318530717959
2  22 10 4 0 6.28318530717959
0

0101000
+65 2 -65 2 *
Wi

0101100
-64 1 *
Fa
0  1e-07 5 1

0101000
+69 0 +66 0 +63 0 *
Ve
1e-07
90 50 0
0 0

0101101
*
Ed
 1e-07 1 1 0
1  12 0 0 90
4 C0 4 0 3 0
2  23 4 0 0 90
0

0101000
+86 0 -61 0 *
Ed
 1e-07 1 1 0
1  13 0 0 8
4 C0 4 0 6 0
2  24 4 0 0 8
2  25 6 0 0 8
0

0101000
+61 0 -72 2 *
Wi

0101100
-60 1 +83 1 +70 1 -59 1 *
Fa
0  1e-07 4 1

0101000
+58 0 *
Ed
 1e-07 1 1 0
1  14 0 0 50
4 C0 3 0 6 0
2  26 6 0 0 50
0

0101000
+79 0 -61 0 *
Wi

0101100
-85 0 +78 0 +56 0 -60 0 *
Ve
1e-07
28.3 25 0
0 0

0101101
*
Ed
 1e-07 1 1 0
1  15 0 0 6.28318530717959
2  27 7 0 0 6.28318530717959
4 C0 3 0 7 0
0

0101000
+54 0 -54 0 *
Wi

0101100
-53 0 *
Ve
1e-07
68.3 25 0
0 0

0101101
*
Ed
 1e-07 1 1 0
1  16 0 0 6.28318530717959
2  28 9 0 0 6.28318530717959
4 C0 3 0 9 0
0

0101000
+51 0 -51 0 *
Wi

0101100
-50 0 *
Fa
0  1e-07 3 0

0111000
+55 0 +52 0 +49 0 *
Wi

0101100
-75 1 +56 1 +59 1 -71 1 *
Fa
0  1e-07 6 1

0101000
+47 0 *
Ed
 1e-07 1 1 0
1  17 0 1 9
3  29 30CN 7 0 1 9
0

0101000
+54 0 -68 2 *
Wi

0101100
+45 1 +53 1 -45 1 -67 1 *
Fa
0  1e-07 7 1

0101000
+44 0 *
Ed
 1e-07 1 1 0
1  18 0 1 9
3  31 32CN 9 0 1 9
0

0101000
+51 0 -65 2 *
Wi

0101100
+42 1 +50 1 -42 1 -64 1 *
Fa
0  1e-07 9 1

0101000
+41 0 *
Sh

0101100
-80 0 -73 0 +62 0 +57 0 -48 1 +46 0 -43 0 -40 0 *
So

0100000
+39 0 *
Ve
1e-07
0 0 16
0 0

0101101
*
Ed
 1e-07 1 1 0
1  19 0 0 8
4 C0 11 0 12 0
2  33 11 0 0 8
2  34 12 0 0 8
0

0101000
+88 5 -37 0 *
Ve
1e-07
0 50 16
0 0

0101101
*
Ed
 1e-07 1 1 0
1  20 0 0 8
4 C0 11 0 13 0
2  35 11 0 0 8
2  36 13 0 0 8
0

0101000
+84 5 -35 0 *
Ed
 1e-07 1 1 0
1  21 0 0 50
4 C0 11 0 14 0
2  37 11 0 0 50
0

0101000
+37 0 -35 0 *
Wi

0101100
-36 3 +82 1 +34 3 -33 3 *
Fa
0  1e-07 11 3

0101000
+32 0 *
Ve
1e-07
90 0 16
0 0

0101101
*
Ed
 1e-07 1 1 0
1  22 0 0 90
4 C0 12 0 14 0
2  38 12 0 0 90
0

0101000
+37 0 -30 0 *
Ed
 1e-07 1 1 0
1  23 0 0 8
4 C0 12 0 15 0
2  39 12 0 0 8
2  40 15 0 0 8
0

0101000
+77 5 -30 0 *
Wi

0101100
-76 1 +36 3 +29 3 -28 3 *
Fa
0  1e-07 12 3

0101000
+27 0 *
Ve
1e-07
90 50 16
0 0

0101101
*
Ed
 1e-07 1 1 0
1  24 0 0 50
4 C0 14 0 15 0
2  41 15 0 0 50
0

0101000
+30 0 -25 0 *
Ed
 1e-07 1 1 0
1  25 0 0 90
4 C0 14 0 13 0
2  42 13 0 0 90
0

0101000
+35 0 -25 0 *
Wi

0101100
-33 0 +29 0 +24 0 -23 0 *
Ve
1e-07
28.3 25 16
0 0

0101101
*
Ed
 1e-07 1 1 0
1  26 0 0 6.28318530717959
2  43 8 0 0 6.28318530717959
4 C0 14 0 8 0
0

0101000
+21 0 -21 0 *
Wi

0101100
-20 0 *
Ve
1e-07
68.3 25 16
0 0

0101101
*
Ed
 1e-07 1 1 0
1  27 0 0 6.28318530717959
2  44 10 0 0 6.28318530717959
4 C0 14 0 10 0
0

0101000
+18 0 -18 0 *
Wi

0101100
-17 0 *
Fa
0  1e-07 14 0

0111000
+22 0 +19 0 +16 0 *
Ed
 1e-07 1 1 0
1  28 0 0 8
4 C0 13 0 15 0
2  45 13 0 0 8
2  46 15 0 0 8
0

0101000
+72 5 -25 0 *
Wi

0101100
-70 1 +34 3 +23 3 -14 3 *
Fa
0  1e-07 13 3

0101000
+13 0 *
Wi

0101100
-28 3 +71 1 +14 3 -24 3 *
Fa
0  1e-07 15 3

0101000
+11 0 *
Ed
 1e-07 1 1 0
1  29 0 9 17
3  47 48CN 8 0 9 17
0

0101000
+68 5 -21 0 *
Wi

0101100
+9 3 +67 1 -9 3 -20 3 *
Fa
0  1e-07 8 3

0101000
+8 0 *
Ed
 1e-07 1 1 0
1  30 0 9 17
3  49 50CN 10 0 9 17
0

0101000
+65 5 -18 0 *
Wi

0101100
+6 3 +64 1 -6 3 -17 3 *
Fa
0  1e-07 10 3

0101000
+5 0 *
Sh

0101100
-31 0 -26 0 +15 3 +12 0 -62 0 +10 0 -7 0 -4 0 *
So

0100000
+3 0 *
Co

1100000
+38 0 +2 0 *

+1 0 