DBRep_DrawableShape

CASCADE Topology V1, (c) Matra-Datavision
Locations 4
1
              1               0               0               0 
              0               1               0               0 
              0               0               1               0 
1
              1               0               0               0 
              0               1               0               0 
              0               0               1               0 
2  2 1 1 -1 0
2  1 -1 0
Curve2ds 34
1 0 0 0 1 
1 0 132 0 -1 
1 0 0 1 0 
1 36 0 0 1 
1 0 96 1 0 
1 140 96 0 1 
1 140 132 -1 0 
1 0 14 1 0 
2 18 20 1 0 -0 1 7
1 0 14 1 0 
2 120 114 1 0 -0 1 7
8 0 6.2831853071795862
1 0 13 1 0 
1 0 0 1 0 
1 36 0 0 1 
1 0 96 1 0 
1 140 96 0 1 
1 0 132 1 0 
1 0 1 1 0 
2 18 20 1 0 -0 1 7
1 0 1 1 0 
2 120 114 1 0 -0 1 7
8 0 6.2831853071795862
1 0 0 1 0 
1 6.2831853071800001 -0 0 1 
1 0 -0 0 1 
1 6.2831853071800001 -0 0 1 
1 0 -0 0 1 
8 1 14
1 6.2831853071800001 -1 0 1 
8 1 14
1 4.1389114358025836e-13 -1 0 1 
1 0 14 1 0 
2 0 0 1 0 -0 1 4.5
1 0 1 1 0 
2 0 0 1 0 -0 1 4.5
1 6.2831853071800001 -0 0 1 
1 0 -0 0 1 
Curves 27
1 0 0 13 0 1 0 
1 0 0 0 0 0 1 
1 0 132 0 0 -1 0 
1 0 132 0 0 0 1 
1 0 0 13 1 0 -0 
1 36 0 13 -0 1 0 
1 0 96 13 1 0 -0 
1 140 96 13 -0 1 0 
1 140 132 13 -1 0 0 
2 18 20 13 0 0 1 1 0 -0 -0 1 0 7
2 120 114 13 0 0 1 1 0 -0 -0 1 0 7
1 0 0 0 1 0 -0 
1 36 0 0 0 0 1 
1 36 0 0 -0 1 0 
1 0 96 0 1 0 -0 
1 140 96 0 -0 1 0 
1 0 132 0 1 0 0 
2 18 20 0 0 0 1 1 0 -0 -0 1 0 7
2 120 114 0 0 0 1 1 0 -0 -0 1 0 7
1 140 132 0 0 0 1 
1 36 96 0 0 0 1 
1 140 96 0 0 0 1 
1 25 20 -1 0 0 1 
1 127 114 -1 0 0 1 
2 120 114 13 0 0 1 1 0 -0 -0 1 0 4.5
2 120 114 0 0 0 1 1 0 -0 -0 1 0 4.5
1 124.5 114 -1 0 0 1 
Polygon3D 0
PolygonOnTriangulations 0
Surfaces 14
1 0 0 0 1 0 -0 0 0 1 0 -1 0 
1 0 0 13 0 0 1 1 0 -0 -0 1 0 
1 0 0 0 -0 1 0 0 0 1 1 0 -0 
1 0 0 0 0 0 1 1 0 -0 -0 1 0 
1 0 132 0 -0 1 0 0 0 1 1 0 -0 
1 36 0 0 1 0 -0 0 0 1 0 -1 0 
1 0 96 0 -0 1 0 0 0 1 1 0 -0 
1 140 96 0 1 0 -0 0 0 1 0 -1 0 
2 18 20 -1 0 0 1 1 0 -0 -0 1 0 7
2 120 114 -1 0 0 1 1 0 -0 -0 1 0 7
2 120 114 0 0 0 1 1 0 -0 -0 1 0 7
1 120 114 13 0 0 1 1 0 -0 -0 1 0 
2 120 114 -1 0 0 1 1 0 -0 -0 1 0 4.5
1 120 114 0 0 0 1 1 0 -0 -0 1 0 
Triangulations 0

TShapes 82
Ve
1e-07
0 0 13
0 0

0101101
*
Ve
1e-07
0 132 13
0 0

0101101
*
Ed
 1e-07 1 1 0
1  1 0 0 132
4 C0 1 0 2 0
2  1 2 0 0 132
0

0101000
+82 0 -81 0 *
Ve
1e-07
0 0 0
0 0

0101101
*
Ed
 1e-07 1 1 0
1  2 0 0 13
4 C0 1 0 3 0
0

0101000
+79 0 -82 0 *
Ve
1e-07
0 132 0
0 0

0101101
*
Ed
 1e-07 1 1 0
1  3 0 0 132
4 C0 1 0 4 0
2  2 4 0 0 132
0

0101000
+77 0 -79 0 *
Ed
 1e-07 1 1 0
1  4 0 0 13
4 C0 1 0 5 0
0

0101000
+77 0 -81 0 *
Wi

0101100
-80 0 -78 0 -76 0 +75 0 *
Fa
0  1e-07 1 0

0111000
+74 0 *
Ve
1e-07
36 0 13
0 0

0101101
*
Ed
 1e-07 1 1 0
1  5 0 0 36
4 C0 2 0 3 0
2  3 2 0 0 36
0

0101000
+82 0 -72 0 *
Ve
1e-07
36 96 13
0 0

0101101
*
Ed
 1e-07 1 1 0
1  6 0 0 96
4 C0 2 0 6 0
2  4 2 0 0 96
0

0101000
+72 0 -70 0 *
Ve
1e-07
140 96 13
0 0

0101101
*
Ed
 1e-07 1 1 0
1  7 0 36 140
4 C0 2 0 7 0
2  5 2 0 36 140
0

0101000
+70 0 -68 0 *
Ve
1e-07
140 132 13
0 0

0101101
*
Ed
 1e-07 1 1 0
1  8 0 0 36
4 C0 2 0 8 0
2  6 2 0 0 36
0

0101000
+68 0 -66 0 *
Ed
 1e-07 1 1 0
1  9 0 0 140
4 C0 2 0 5 0
2  7 2 0 0 140
0

0101000
+66 0 -81 0 *
Wi

0101100
-80 1 +71 1 +69 1 +67 1 +65 1 +64 1 *
Ve
1e-07
25 20 13
0 0

0101101
*
Ed
 1e-07 1 1 0
1  10 0 0 6.28318530717959
2  8 9 0 0 6.28318530717959
4 C0 2 0 9 0
2  9 2 0 0 6.28318530717959
0

0101000
+62 0 -62 0 *
Wi

0101100
-61 1 *
Ve
1e-07
127 114 13
0 0

0101101
*
Ed
 1e-07 1 1 0
1  11 0 0 6.28318530717959
2  10 10 0 0 6.28318530717959
4 C0 2 0 10 0
2  11 2 0 0 6.28318530717959
2  12 11 3 0 6.28318530717959
0

0101000
+59 4 -59 4 *
Wi

0101100
-58 1 *
Fa
0  1e-07 2 1

0101000
+63 0 +60 0 +57 0 *
Ve
1e-07
36 0 0
0 0

0101101
*
Ed
 1e-07 1 1 0
1  12 0 0 36
4 C0 3 0 4 0
2  13 4 0 0 36
0

0101000
+79 0 -55 0 *
Ed
 1e-07 1 1 0
1  13 0 0 13
4 C0 3 0 6 0
0

0101000
+55 0 -72 0 *
Wi

0101100
-54 0 +78 0 +71 0 -53 0 *
Fa
0  1e-07 3 0

0111000
+52 0 *
Ve
1e-07
36 96 0
0 0

0101101
*
Ed
 1e-07 1 1 0
1  14 0 0 96
4 C0 4 0 6 0
2  14 4 0 0 96
0

0101000
+55 0 -50 0 *
Ve
1e-07
140 96 0
0 0

0101101
*
Ed
 1e-07 1 1 0
1  15 0 36 140
4 C0 4 0 7 0
2  15 4 0 36 140
0

0101000
+50 0 -48 0 *
Ve
1e-07
140 132 0
0 0

0101101
*
Ed
 1e-07 1 1 0
1  16 0 0 36
4 C0 4 0 8 0
2  16 4 0 0 36
0

0101000
+48 0 -46 0 *
Ed
 1e-07 1 1 0
1  17 0 0 140
4 C0 4 0 5 0
2  17 4 0 0 140
0

0101000
+77 0 -46 0 *
Wi

0101100
+54 1 +49 1 +47 1 +45 1 -44 1 +76 1 *
Ve
1e-07
25 20 0
0 0

0101101
*
Ed
 1e-07 1 1 0
1  18 0 0 6.28318530717959
2  18 9 0 0 6.28318530717959
4 C0 4 0 9 0
2  19 4 0 0 6.28318530717959
0

0101000
+42 0 -42 0 *
Wi

0101100
-41 1 *
Ve
1e-07
127 114 0
0 0

0101101
*
Ed
 1e-07 1 1 0
1  19 0 0 6.28318530717959
2  20 10 0 0 6.28318530717959
4 C0 4 0 10 0
2  21 4 0 0 6.28318530717959
2  22 11 3 0 6.28318530717959
0

0101000
+39 4 -39 4 *
Wi

0101100
-38 1 *
Fa
0  1e-07 4 1

0101000
+43 0 +40 0 +37 0 *
Ed
 1e-07 1 1 0
1  20 0 0 13
4 C0 5 0 8 0
0

0101000
+46 0 -66 0 *
Wi

0101100
-44 0 +75 0 -64 0 -35 0 *
Fa
0  1e-07 5 0

0111000
+34 0 *
Ed
 1e-07 1 1 0
1  21 0 0 13
4 C0 6 0 7 0
0

0101000
+50 0 -70 0 *
Wi

0101100
-69 0 -53 0 +49 0 +32 0 *
Fa
0  1e-07 6 0

0111000
+31 0 *
Ed
 1e-07 1 1 0
1  22 0 0 13
4 C0 8 0 7 0
0

0101000
+48 0 -68 0 *
Wi

0101100
-29 0 +45 0 +35 0 -65 0 *
Fa
0  1e-07 8 0

0111000
+28 0 *
Wi

0101100
-47 0 +32 0 +67 0 -29 0 *
Fa
0  1e-07 7 0

0111000
+26 0 *
Ed
 1e-07 1 1 0
1  23 0 1 14
3  23 24CN 9 0 1 14
0

0101000
+42 0 -62 0 *
Wi

0101100
-61 0 -24 0 +41 0 +24 0 *
Fa
0  1e-07 9 0

0111000
+23 0 *
Ed
 1e-07 1 1 0
1  24 0 1 14
3  25 26CN 10 0 1 14
3  27 28C0 11 3 1 14
0

0101000
+39 4 -59 4 *
Wi

0101100
+21 1 +38 1 -21 1 -58 1 *
Fa
0  1e-07 10 1

0101000
+20 0 *
Sh

0101100
-73 1 +56 0 -51 1 -36 0 +33 1 +30 1 +27 1 -25 1 -22 1 -19 0 
*
So

0100000
+18 0 *
Wi

0101100
+58 1 *
Ve
1e-07
124.5 114 13
0 0

0101101
*
Ed
 1e-07 1 1 0
1  25 0 0 6.28318530717959
2  29 13 0 0 6.28318530717959
4 C0 12 0 13 0
2  30 12 0 0 6.28318530717959
0

0101000
+15 0 -15 0 *
Wi

0101100
-14 2 *
Fa
0  1e-07 12 2

0101000
+16 0 +13 0 *
Wi

0101100
+38 1 *
Ve
1e-07
124.5 114 0
0 0

0101101
*
Ed
 1e-07 1 1 0
1  26 0 0 6.28318530717959
2  31 13 0 0 6.28318530717959
4 C0 14 0 13 0
2  32 14 0 0 6.28318530717959
0

0101000
+10 0 -10 0 *
Wi

0101100
-9 2 *
Fa
0  1e-07 14 2

0101000
+11 0 +8 0 *
Ed
 1e-07 1 1 0
1  27 0 1 14
3  33 34CN 13 0 1 14
0

0101000
+10 0 -15 0 *
Wi

0101100
-14 0 -6 0 +9 0 +6 0 *
Fa
0  1e-07 13 0

0111000
+5 0 *
Sh

0101100
+19 0 +12 0 -7 0 -4 2 *
So

0100000
+3 0 *
Co

1100000
+17 0 +2 0 *

+1 0 